<?xml version="1.0" standalone="no"?>
<!DOCTYPE svg PUBLIC "-//W3C//DTD SVG 20010904//EN"
 "http://www.w3.org/TR/2001/REC-SVG-20010904/DTD/svg10.dtd">
<svg version="1.0" xmlns="http://www.w3.org/2000/svg"
 width="256.000000pt" height="146.000000pt" viewBox="0 0 256.000000 146.000000"
 preserveAspectRatio="xMidYMid meet">

<g transform="translate(0.000000,146.000000) scale(0.100000,-0.100000)"
fill="#e12125" stroke="none">
<path d="M1861 1392 c-13 -2 -87 -10 -165 -17 l-141 -13 245 2 c268 1 288 -2
425 -63 78 -34 61 -15 -25 29 -80 41 -265 75 -339 62z"/>
<path d="M715 1350 c-241 -18 -394 -93 -518 -255 -85 -111 -146 -315 -133
-444 18 -172 67 -288 168 -396 80 -86 166 -135 290 -166 73 -18 111 -21 303
-20 236 2 780 25 960 41 222 20 338 66 454 182 70 69 153 206 144 236 -10 28
-34 8 -63 -54 -45 -97 -140 -192 -244 -243 -129 -64 -161 -71 -343 -71 -90 0
-163 4 -163 8 0 4 64 14 143 21 277 24 369 51 460 132 60 54 147 166 147 191
0 19 -47 41 -65 31 -15 -9 -65 -79 -65 -92 0 -12 -71 -86 -100 -104 -14 -8
-52 -26 -85 -38 -56 -21 -76 -23 -340 -25 -154 -1 -374 -7 -490 -13 -269 -14
-520 -14 -587 0 -68 14 -158 62 -207 109 -21 20 -52 65 -69 99 -62 124 -66
240 -15 373 73 187 183 251 463 269 80 5 339 12 575 15 237 4 432 8 434 10 9
8 -864 3 -1002 -6 -216 -14 -314 -49 -410 -144 -47 -48 -86 -120 -113 -212
-52 -181 41 -405 204 -492 121 -64 132 -65 682 -59 304 3 478 2 450 -4 -86
-17 -386 -38 -630 -45 -283 -7 -358 3 -475 60 -212 105 -326 374 -251 595 34
100 66 150 140 217 70 64 159 107 256 123 126 22 1286 40 1375 21 168 -35 306
-142 379 -295 13 -28 20 -35 23 -23 9 38 -78 166 -157 230 -68 55 -130 84
-234 110 -79 20 -101 21 -726 15 l-645 -5 -82 -24 c-107 -32 -182 -78 -254
-157 -33 -35 -59 -60 -59 -54 0 5 22 34 49 64 94 106 233 173 384 186 47 4 67
10 67 19 0 22 -75 17 -185 -11 -140 -35 -220 -85 -301 -187 -90 -114 -129
-245 -121 -403 7 -125 38 -223 103 -318 57 -83 102 -122 188 -165 116 -58 175
-65 481 -58 149 3 320 8 380 11 85 4 103 2 80 -6 -29 -10 -614 -29 -725 -23
-73 4 -201 45 -275 89 -163 96 -269 289 -268 490 0 103 33 227 87 330 46 88
158 196 250 240 97 47 174 62 381 75 94 6 211 13 260 16 50 3 92 8 94 10 7 6
-353 2 -454 -6z m-492 -405 c-9 -19 -18 -33 -21 -31 -4 5 26 66 33 66 3 0 -3
-16 -12 -35z"/>
<path d="M1185 1300 c-137 -4 -278 -8 -312 -9 -51 -1 -63 -4 -63 -17 0 -15 17
-16 168 -10 501 19 887 28 962 23 168 -11 344 -92 424 -194 24 -30 61 -86 82
-124 43 -80 57 -84 24 -7 -45 104 -155 217 -265 272 -145 71 -139 70 -470 72
-165 0 -412 -2 -550 -6z"/>
<path d="M1868 1143 c12 -2 30 -2 40 0 9 3 -1 5 -23 4 -22 0 -30 -2 -17 -4z"/>
<path d="M2090 1086 c0 -3 20 -19 44 -35 24 -17 61 -53 81 -81 21 -28 40 -48
43 -46 11 11 -84 119 -125 143 -24 14 -43 23 -43 19z"/>
<path d="M678 1049 c-9 -5 -29 -29 -45 -54 -15 -25 -33 -45 -39 -45 -10 0 -54
-90 -54 -110 0 -14 49 -18 54 -4 6 15 42 39 72 48 19 6 22 2 28 -39 6 -37 11
-45 28 -45 19 0 20 4 15 55 -3 32 -1 57 4 61 6 4 5 12 -5 22 -8 10 -18 35 -21
57 -10 56 -17 65 -37 54z m-8 -109 c0 -5 -5 -10 -11 -10 -5 0 -7 5 -4 10 3 6
8 10 11 10 2 0 4 -4 4 -10z"/>
<path d="M815 1044 c-42 -15 -79 -44 -57 -44 7 0 12 -7 12 -15 0 -8 9 -15 20
-15 24 0 32 -27 28 -94 -3 -48 -3 -48 30 -52 30 -4 32 -2 32 25 0 17 -4 33
-10 36 -5 3 -10 28 -10 55 0 43 3 48 25 54 25 6 30 20 19 50 -7 19 -36 19 -89
0z"/>
<path d="M1273 1039 c-47 -18 -70 -39 -43 -39 6 0 9 -6 8 -12 -2 -7 7 -14 20
-16 23 -4 24 -7 26 -91 1 -53 1 -54 34 -57 30 -4 32 -2 32 25 0 17 -4 33 -10
36 -5 3 -10 28 -10 55 0 45 2 50 26 56 20 5 24 11 20 28 -3 11 -6 24 -6 29 0
13 -43 7 -97 -14z"/>
<path d="M1508 1043 c-48 -55 -50 -101 -6 -138 25 -21 29 -28 17 -36 -8 -5
-20 -9 -28 -9 -9 0 -11 -6 -6 -17 4 -10 7 -25 7 -34 0 -14 4 -15 31 -6 57 18
75 29 87 52 18 34 3 64 -41 81 -41 17 -49 34 -25 53 10 9 16 8 26 -4 14 -17
36 -20 45 -5 10 16 -23 60 -45 60 -10 0 -22 5 -25 10 -9 15 -20 12 -37 -7z"/>
<path d="M1767 1010 c-11 -27 -24 -50 -27 -50 -4 0 -12 18 -19 39 -16 56 -63
67 -75 18 -10 -42 -19 -176 -12 -192 11 -30 36 3 37 49 1 22 4 52 8 66 6 22
10 18 32 -39 13 -36 29 -66 35 -68 6 -2 18 13 27 34 l15 38 1 -35 c2 -45 13
-62 36 -54 16 6 17 16 11 103 -4 53 -7 106 -8 119 0 15 -6 22 -20 22 -14 0
-26 -14 -41 -50z"/>
<path d="M1907 1040 c-14 -11 -32 -41 -41 -67 -16 -45 -15 -49 6 -93 16 -30
30 -45 43 -46 11 0 28 -4 39 -9 21 -9 42 12 77 79 20 37 20 40 4 77 -32 69
-84 93 -128 59z m67 -61 c32 -25 32 -31 3 -65 l-24 -27 -23 32 c-20 29 -21 36
-10 57 16 29 20 30 54 3z"/>
<path d="M936 1042 c-3 -5 -8 -54 -12 -110 -8 -119 -3 -125 72 -96 31 12 49
14 51 7 2 -5 10 -19 17 -29 13 -18 16 -18 68 -1 30 9 62 17 71 17 11 0 17 8
17 21 0 20 -4 21 -47 16 -27 -3 -56 -9 -66 -13 -16 -6 -18 -3 -15 17 2 19 13
27 51 38 34 11 47 19 45 30 -4 17 -25 19 -70 8 -23 -6 -28 -4 -28 12 0 18 27
34 82 47 14 3 35 15 45 26 l18 21 -65 -7 c-102 -11 -103 -11 -111 -32 -4 -10
-8 -38 -8 -60 -1 -39 -4 -43 -38 -57 -21 -8 -41 -13 -46 -10 -4 2 -4 40 -1 84
6 68 5 79 -9 79 -9 0 -18 -4 -21 -8z"/>
<path d="M1406 1038 c-3 -7 -7 -44 -9 -83 -3 -38 -8 -77 -12 -86 -4 -11 2 -25
16 -38 32 -30 39 -26 39 17 0 21 5 64 11 95 14 69 6 107 -22 107 -11 0 -21 -6
-23 -12z"/>
<path d="M953 584 c-21 -19 -23 -30 -23 -123 0 -81 3 -101 14 -101 16 0 20 11
31 75 l7 40 17 -25 c18 -27 80 -95 82 -89 0 2 6 44 12 93 7 50 17 91 24 93 7
3 9 -4 6 -18 -6 -20 -3 -21 21 -15 l27 7 -2 -73 c-2 -61 0 -73 14 -73 8 0 19
-4 23 -8 20 -19 24 0 18 83 -7 88 -6 90 15 90 27 0 36 22 22 49 -13 24 -50 21
-113 -9 -21 -10 -38 -14 -38 -8 0 5 -6 8 -12 6 -7 -3 -19 1 -26 9 -24 24 -31
14 -25 -42 7 -62 -9 -75 -26 -22 -6 17 -19 43 -29 57 l-17 25 -22 -21z"/>
<path d="M569 569 c-33 -47 -29 -87 11 -121 l34 -28 -32 -11 c-28 -10 -30 -12
-16 -26 11 -12 12 -18 3 -29 -9 -11 -8 -14 4 -14 9 0 18 4 22 9 3 6 13 9 23 8
21 -1 68 29 76 49 12 31 -5 59 -44 76 -41 17 -53 44 -25 55 9 3 24 -2 34 -11
13 -12 20 -13 29 -4 17 17 -4 47 -43 64 -47 19 -51 18 -76 -17z"/>
<path d="M809 558 c-17 -24 -33 -49 -36 -55 -3 -7 -11 -13 -18 -13 -12 0 -39
-58 -47 -99 -5 -21 40 -20 59 2 10 10 30 25 46 33 26 14 28 13 37 -11 6 -15
10 -35 10 -46 0 -10 7 -19 15 -19 8 0 18 -1 22 -2 11 -4 8 126 -3 143 -5 8
-13 34 -19 58 -5 24 -15 46 -22 48 -7 3 -26 -15 -44 -39z"/>
<path d="M1484 592 c-6 -4 -25 -28 -43 -55 -18 -26 -36 -45 -41 -42 -10 6 -54
-105 -45 -113 13 -13 46 -11 52 3 6 17 54 45 77 45 9 0 17 -15 21 -39 6 -36
26 -58 44 -47 4 3 4 29 1 58 -5 34 -3 55 3 60 8 5 6 13 -5 25 -9 10 -20 38
-25 62 -8 45 -19 57 -39 43z"/>
<path d="M1628 563 c-41 -43 -62 -97 -49 -121 33 -60 115 -99 141 -67 16 20
16 101 0 121 -16 18 -69 -2 -80 -30 -9 -21 -9 -21 -9 2 -1 14 16 40 44 68 25
25 43 49 40 55 -13 20 -52 7 -87 -28z m62 -139 c0 -8 -5 -12 -10 -9 -6 4 -8
11 -5 16 9 14 15 11 15 -7z"/>
<path d="M1786 570 c-30 -36 -43 -108 -26 -141 23 -44 42 -60 57 -48 8 7 13 8
13 1 0 -5 9 -12 20 -15 15 -4 27 7 55 51 41 65 41 94 -1 149 -34 45 -81 46
-118 3z m104 -73 c0 -7 -9 -23 -19 -37 -17 -21 -21 -22 -36 -10 -31 26 -38 49
-20 76 l16 25 29 -21 c17 -12 30 -27 30 -33z"/>
<path d="M1287 523 c-4 -38 -9 -84 -13 -103 -5 -32 -3 -37 20 -48 37 -17 36
-18 36 36 0 26 5 67 11 92 14 59 5 90 -25 90 -21 0 -24 -5 -29 -67z"/>
</g>
</svg>
