<svg xmlns="http://www.w3.org/2000/svg" viewBox="-49 141 512 512"><path d="M461.576 405.537l-58.431-157.94c-2.122-5.739-6.353-10.307-11.913-12.863s-11.78-2.796-17.519-.672L88.796 339.467a22.758 22.758 0 0 0-12.864 11.913 22.759 22.759 0 0 0-.672 17.519l58.431 157.94a22.752 22.752 0 0 0 11.913 12.864 22.83 22.83 0 0 0 9.559 2.107c2.682 0 5.37-.476 7.961-1.435l284.918-105.406h.001c11.843-4.384 17.915-17.586 13.533-29.432zm-191.901-14.914l-149.327-38.405 237.704-87.939-88.377 126.344zm1.981 24.167c.951.241 1.913.367 2.852.367 3.688 0 7.216-1.787 9.392-4.891l18.133-25.944 117.369 36.818-243.539 90.098 65.152-104.33 30.641 7.882zm164.325-12.457l-120.166-37.695 69.463-99.324 50.703 137.019zm-335.619-31.602l117.382 30.192-66.699 106.808-50.683-137zM69.725 523.208l-43.162 15.968c-5.933 2.196-8.962 8.784-6.768 14.716 1.71 4.623 6.086 7.482 10.743 7.482 1.319 0 2.663-.23 3.973-.715l43.16-15.968c5.933-2.194 8.962-8.784 6.768-14.716-2.193-5.932-8.784-8.96-14.714-6.767zM-11.36 448.934c1.319 0 2.663-.23 3.973-.715l26.643-9.857c5.933-2.194 8.962-8.784 6.768-14.716-2.196-5.933-8.785-8.96-14.716-6.768l-26.643 9.857c-5.933 2.196-8.962 8.784-6.768 14.716 1.71 4.623 6.087 7.483 10.743 7.483zM-21.721 503.641l-19.797 7.324c-5.933 2.196-8.962 8.783-6.768 14.716 1.71 4.622 6.086 7.482 10.743 7.482 1.319 0 2.663-.23 3.973-.715l19.797-7.324c5.933-2.196 8.962-8.784 6.768-14.716-2.195-5.933-8.784-8.962-14.716-6.767z" fill="#e21d3e"/></svg>